<svg width="23" height="22" viewBox="0 0 23 22" fill="none" xmlns="http://www.w3.org/2000/svg">
<path d="M11.9583 0C5.89317 0 0.976562 4.92479 0.976562 11C0.976562 17.0752 5.89317 22 11.9583 22C18.0234 22 22.94 17.0752 22.94 11C22.94 4.92479 18.0234 0 11.9583 0ZM9.27005 15.5593H7.04625V8.39094H9.27005V15.5593ZM8.14442 7.51094C7.44205 7.51094 6.98791 7.0125 6.98791 6.39604C6.98791 5.76698 7.45578 5.28344 8.17302 5.28344C8.89026 5.28344 9.32953 5.76698 9.34326 6.39604C9.34326 7.0125 8.89026 7.51094 8.14442 7.51094ZM17.3919 15.5593H15.1681V11.5867C15.1681 10.662 14.8456 10.0341 14.0414 10.0341C13.4271 10.0341 13.0622 10.4592 12.9009 10.8682C12.8414 11.0138 12.8265 11.22 12.8265 11.4251V15.5581H10.6016V10.6769C10.6016 9.78198 10.573 9.03375 10.5432 8.38979H12.4753L12.5771 9.38552H12.6218C12.9146 8.91802 13.6319 8.22823 14.8318 8.22823C16.2949 8.22823 17.3919 9.21021 17.3919 11.3208V15.5593Z" fill="#58667E"/>
</svg>
