<svg width="25" height="20" viewBox="0 0 25 20" fill="none" xmlns="http://www.w3.org/2000/svg">
<path fill-rule="evenodd" clip-rule="evenodd" d="M24.0099 2.31164C23.1128 2.70991 22.1611 2.97114 21.1866 3.08663C22.213 2.47126 22.9812 1.50316 23.348 0.362646C22.383 0.93656 21.3272 1.34105 20.2262 1.55864C19.486 0.766918 18.5056 0.242088 17.4372 0.0656226C16.3688 -0.110843 15.2721 0.0709268 14.3173 0.582715C13.3626 1.0945 12.6032 1.90768 12.1571 2.89602C11.711 3.88436 11.6031 4.99257 11.8501 6.04862C9.8954 5.95077 7.98309 5.44203 6.23748 4.55545C4.49187 3.66888 2.95203 2.42432 1.71803 0.902644C1.28067 1.65417 1.05084 2.50874 1.05213 3.37863C1.05213 5.08663 1.91969 6.59462 3.23949 7.47762C2.4589 7.45231 1.69549 7.24152 1.0122 6.86262V6.92262C1.01205 8.05976 1.40467 9.16193 2.12345 10.0421C2.84223 10.9223 3.84288 11.5263 4.95563 11.7516C4.23149 11.9479 3.47231 11.977 2.73533 11.8366C3.04941 12.815 3.6609 13.6706 4.4843 14.2838C5.3077 14.897 6.30183 15.2371 7.32768 15.2566C5.58615 16.6247 3.43608 17.3667 1.22285 17.3636C0.825512 17.3636 0.434164 17.3406 0.0498047 17.2956C2.29769 18.7419 4.91357 19.5098 7.58525 19.5076C16.6272 19.5076 21.5709 12.0046 21.5709 5.49762C21.5709 5.28463 21.566 5.07263 21.557 4.86163C22.5194 4.16437 23.35 3.30087 24.0099 2.31164Z" fill="#58667E"/>
</svg>
